{"title":"Drive Angry-AC3-XviD-BRRip 2011 TBS","uid":6393753,"size":1581108806,"categoryP":"video","categoryS":"movies","magnet":"?xt=urn:btih:d82c82eddb79ee2957659f31a088108822d6f5c2&amp;dn=Drive+Angry-AC3-XviD-BRRip+2011+TBS&amp;tr=udp%3A%2F%2Ftracker.openbittorrent.com%3A80&amp;tr=udp%3A%2F%2Fopen.demonii.com%3A1337&amp;tr=udp%3A%2F%2Ftracker.coppersurfer.tk%3A6969&amp;tr=udp%3A%2F%2Fexodus.desync.com%3A6969","seeders":0,"leechers":1,"uploader":"FatFreddy30","files":-1,"time":1305449416,"description":"A vengeful father escapes from hell and chases after the men who killed his daughter and kidnapped his granddaughter...\n &lt;a href=&quot;\nhttp://www.imdb.com/title/tt1502404/&quot; rel=&quot;nofollow&quot; target=&quot;_NEW&quot;&gt;\nhttp://www.imdb.com/title/tt1502404/&lt;/a&gt;\n\nSubs: Dutch, English.\n\n\nWanneer de dochter van Milton (Nicolas Cage) vermoord wordt wil hij maar ÃƒÂ©ÃƒÂ©n ding; wraak. Hij krijgt drie dagen de tijd om de moordenaars te vinden, omdat deze ook nog eens zijn kleindochter ontvoerd hebben en ze van plan zijn om haar onder een volle maan te offeren. Hij wordt tijdens zijn wraakmissie vergezeld door Piper (Amber Heard), een jonge en sexy serveerster. In Pipers 'turbo-charged Black '69 Charger' beginnen ze een race tegen de klok...\n &lt;a href=&quot;\nhttp://www.moviemeter.nl/film/64422&quot; rel=&quot;nofollow&quot; target=&quot;_NEW&quot;&gt;\nhttp://www.moviemeter.nl/film/64422&lt;/a&gt;\n\nSubs: Engels, Nederlands.\n\nGeneral\nComplete name                    : Drive Angry-AC3-XviD-BRRip 2011.avi\nFormat                           : AVI\nFormat/Info                      : Audio Video Interleave\nFile size                        : 1.46 GiB\nDuration                         : 1h 44mn\nOverall bit rate                 : 2 002 Kbps\nWriting application              : VirtualDubMod 1.5.4.1 (build 2178/release)\nWriting library                  : VirtualDubMod build 2178/release\nSource                           : Drive Angry 720p BluRay x264-TWiZTED \n\nVideo\nID                               : 0\nFormat                           : MPEG-4 Visual\nFormat profile                   : Simple@L3\nFormat settings, BVOP            : No\nFormat settings, QPel            : No\nFormat settings, GMC             : No warppoints\nFormat settings, Matrix          : Default (H.263)\nCodec ID                         : XVID\nCodec ID/Hint                    : XviD\nDuration                         : 1h 44mn\nBit rate                         : 1 545 Kbps\nWidth                            : 720 pixels\nHeight                           : 400 pixels\nDisplay aspect ratio             : 16:9\nFrame rate                       : 23.976 fps\nResolution                       : 8 bits\nColorimetry                      : 4:2:0\nScan type                        : Progressive\nBits/(Pixel*Frame)               : 0.224\nStream size                      : 1.13 GiB (77%)\nWriting library                  : XviD 1.1.2 (UTC 2006-11-01)\n\nAudio\nID                               : 1\nFormat                           : AC-3\nFormat/Info                      : Audio Coding 3\nCodec ID                         : 2000\nDuration                         : 1h 44mn\nBit rate mode                    : Constant\nBit rate                         : 448 Kbps\nChannel(s)                       : 6 channels\nChannel positions                : Front: L C R, Surround: L R, LFE\nSampling rate                    : 48.0 KHz\nStream size                      : 335 MiB (22%)\nAlignment                        : Split accross interleaves\nInterleave, duration             : 42 ms (1.00 video frame)\nInterleave, preload duration     : 500 ms\n\nEnjoy..\n\nTBS.\n\nThanks to Simply ReleaseS Toppers.","torrent":{"xt":"urn:btih:d82c82eddb79ee2957659f31a088108822d6f5c2","amp;dn":"Drive+Angry-AC3-XviD-BRRip+2011+TBS","amp;tr":["udp%3A%2F%2Ftracker.openbittorrent.com%3A80","udp%3A%2F%2Fopen.demonii.com%3A1337","udp%3A%2F%2Ftracker.coppersurfer.tk%3A6969","udp%3A%2F%2Fexodus.desync.com%3A6969"],"infoHash":"d82c82eddb79ee2957659f31a088108822d6f5c2","infoHashBuffer":{"type":"Buffer","data":[216,44,130,237,219,121,238,41,87,101,159,49,160,136,16,136,34,214,245,194]},"announce":[],"urlList":[]}}